<svg width="22" height="22" viewBox="0 0 22 22" fill="none" xmlns="http://www.w3.org/2000/svg">
<path d="M11 8.25C12.5188 8.25 13.75 9.48122 13.75 11C13.75 12.5188 12.5188 13.75 11 13.75C9.48122 13.75 8.25 12.5188 8.25 11C8.25 9.48122 9.48122 8.25 11 8.25Z" fill="white"/>
<path d="M11 0C12.5188 0 13.75 1.23122 13.75 2.75C13.75 4.26878 12.5188 5.5 11 5.5C9.48122 5.5 8.25 4.26878 8.25 2.75C8.25 1.23122 9.48122 0 11 0Z" fill="white"/>
<path d="M11 16.5C12.5188 16.5 13.75 17.7312 13.75 19.25C13.75 20.7688 12.5188 22 11 22C9.48122 22 8.25 20.7688 8.25 19.25C8.25 17.7312 9.48122 16.5 11 16.5Z" fill="white"/>
</svg>
